<?xml version="1.0" encoding="utf-8"?>
<!-- Generator: Adobe Illustrator 12.0.1, SVG Export Plug-In . SVG Version: 6.00 Build 51448)  -->
<!DOCTYPE svg PUBLIC "-//W3C//DTD SVG 1.0//EN" "http://www.w3.org/TR/2001/REC-SVG-20010904/DTD/svg10.dtd" [
	<!ENTITY ns_svg "http://www.w3.org/2000/svg">
	<!ENTITY ns_xlink "http://www.w3.org/1999/xlink">
]>
<svg  version="1.0" id="Layer_1" xmlns="&ns_svg;" xmlns:xlink="&ns_xlink;" width="412.279" height="244.576"
	 viewBox="0 0 412.279 244.576" overflow="visible" enable-background="new 0 0 412.279 244.576" xml:space="preserve">
<rect x="261.779" y="22.497" fill="#FFFFFF" stroke="#000000" stroke-linejoin="bevel" stroke-miterlimit="10" width="150" height="122"/>
<path fill="#3333CC" stroke="#3333CC" stroke-width="0.1198" stroke-linejoin="bevel" stroke-miterlimit="10" d="M35.16,226.798
	l-3.847-3.648l-3.815-3.662l-3.726-3.67l-3.62-3.682l-1.741-1.867l-1.697-1.852l-1.651-1.879l-1.591-1.859l-1.53-1.887l-1.47-1.9
	l-1.379-1.895l-1.319-1.922l-1.229-1.92l-1.137-1.941l-1.048-1.941l-0.941-1.963l-0.851-1.99l-0.715-1.984l-0.624-2.008
	l-0.488-2.033l-0.367-2.041l-0.217-2.064l-0.096-2.074l0.055-2.098l0.206-2.119l0.356-2.127l0.522-2.135l0.689-2.172l0.442-1.102
	l0.489-1.133l0.58-1.143l0.655-1.168l0.702-1.18l0.778-1.209l0.838-1.219l0.898-1.217l0.944-1.244l1.021-1.256l1.051-1.27
	l1.111-1.281l1.157-1.295l1.218-1.307l2.526-2.639l2.708-2.66l2.844-2.699l2.949-2.708l3.085-2.716l3.145-2.714l3.235-2.709
	l3.264-2.693l3.308-2.677l3.336-2.629l3.319-2.601l3.288-2.572l3.27-2.499l3.207-2.426l3.128-2.37l3.035-2.299l2.941-2.214
	l2.8-2.101l2.646-2.003l2.491-1.905l1.184-0.903l1.122-0.876l1.09-0.848l1.028-0.806l1.109-0.921l0.965,1.155l-1.155,0.935
	l-1.029,0.821l-1.091,0.848l-1.122,0.876l-1.184,0.918l-2.49,1.891l-2.662,2.017l-2.8,2.101l-2.941,2.214l-3.034,2.284l-3.129,2.37
	l-3.191,2.442l-3.269,2.483l-3.288,2.557l-3.319,2.601l-3.307,2.632l-3.292,2.662l-3.279,2.692l-3.204,2.696l-3.145,2.699
	l-3.055,2.703l-2.934,2.694l-2.812,2.655l-2.676,2.646l-2.525,2.609l-1.187,1.293l-1.141,1.266l-1.096,1.268l-1.05,1.254
	l-0.974,1.229l-0.943,1.215l-0.867,1.188l-0.822,1.189l-0.745,1.15l-0.684,1.137l-0.608,1.111l-0.546,1.082l-0.485,1.057
	l-0.395,1.031l-0.668,2.068l-0.488,2.045l-0.352,2.021l-0.201,2l-0.065,1.992l0.085,1.984l0.221,1.959l0.342,1.951l0.477,1.941
	l0.583,1.932l0.704,1.924l0.809,1.912l0.915,1.904l1.019,1.908l1.11,1.881l1.2,1.887l1.291,1.877l1.365,1.879l1.427,1.854
	l1.517,1.855l1.562,1.859l1.637,1.848l1.683,1.834l1.743,1.838l3.575,3.68l3.726,3.656l3.802,3.646l3.846,3.66L35.16,226.798
	L35.16,226.798z M77.619,92.174l6.526-1.563l-2.664,6.156L77.619,92.174L77.619,92.174z"/>
<path fill="#FF0000" stroke="#FF0000" stroke-width="0.1198" stroke-linejoin="bevel" stroke-miterlimit="10" d="M196.826,149.277
	l-108.898,5.736l-0.075-1.496l108.898-5.723L196.826,149.277L196.826,149.277z M89.037,157.201l-6.144-2.682l5.829-3.295
	L89.037,157.201L89.037,157.201z"/>
<path fill="#4B9900" stroke="#00CC99" stroke-width="0.1198" stroke-linejoin="bevel" stroke-miterlimit="10" d="M123.572,8.13
	l7.911,2.415l7.868,2.448l7.824,2.479l7.707,2.546l7.594,2.656l3.761,1.368l3.687,1.401l3.661,1.448l3.602,1.465l3.543,1.529
	l3.486,1.561l3.429,1.609l3.355,1.659l3.283,1.722l3.212,1.77l3.14,1.834l3.053,1.898l2.966,1.963l2.879,2.028l2.778,2.107
	l2.677,2.173l2.578,2.268l2.475,2.333l2.358,2.415l2.26,2.524l2.128,2.59l1.999,2.702l1.883,2.784l1.753,2.88l1.621,2.976
	l1.522,3.057l1.405,3.123l1.289,3.219l1.189,3.283l1.087,3.379l1.001,3.428l0.884,3.494l0.812,3.558l0.726,3.622l0.654,3.686
	l0.566,3.735l0.493,3.784l0.437,3.832l0.361,3.882l0.306,3.928l0.249,3.977l0.204,3.994l0.146,4.042l0.104,4.075l0.104,8.214
	l-0.026,8.309l-0.125,8.391l-0.186,8.422l-0.094,3.455l-1.502-0.043l0.094-3.453l0.185-8.408l0.128-8.361l0.026-8.295l-0.104-8.198
	l-0.102-4.044l-0.147-4.027l-0.201-3.979l-0.248-3.947l-0.288-3.899l-0.378-3.865l-0.419-3.803l-0.492-3.754l-0.564-3.705
	l-0.637-3.642l-0.723-3.577l-0.811-3.528l-0.882-3.464l-0.969-3.385l-1.069-3.305l-1.171-3.239l-1.287-3.159l-1.373-3.094
	l-1.488-2.999l-1.59-2.902l-1.72-2.822l-1.835-2.741l-1.965-2.629l-2.082-2.563l-2.211-2.451l-2.313-2.387l-2.428-2.305l-2.53-2.21
	l-2.659-2.159l-2.732-2.065l-2.835-2.014l-2.934-1.936l-3.021-1.87l-3.094-1.822l-3.181-1.757l-3.268-1.693l-3.341-1.659
	l-3.397-1.597l-3.456-1.563l-3.528-1.5l-3.586-1.466l-3.63-1.435l-3.688-1.401l-3.714-1.355l-7.579-2.642l-7.708-2.561l-7.794-2.482
	l-7.866-2.432l-7.912-2.416L123.572,8.13L123.572,8.13z M249.43,176.63l-3.165,5.904l-2.831-6.064L249.43,176.63L249.43,176.63z"/>
<path stroke="#000000" stroke-width="0.1198" stroke-linejoin="bevel" stroke-miterlimit="10" d="M179.427,97.204l21.204,31.783
	l-1.244,0.839l-21.204-31.798L179.427,97.204L179.427,97.204z M201.95,126.92l0.824,6.635l-5.813-3.31L201.95,126.92L201.95,126.92z
	"/>
<path stroke="#000000" stroke-width="0.1198" stroke-linejoin="bevel" stroke-miterlimit="10" d="M125.465,19.303l39.097,55.823
	l-1.229,0.854l-39.082-55.823L125.465,19.303L125.465,19.303z M165.835,73.014l0.975,6.62l-5.89-3.19L165.835,73.014L165.835,73.014
	z"/>
<path fill-rule="evenodd" clip-rule="evenodd" fill="#00CC99" d="M118.857,0.749c-6.616,0-11.988,5.37-11.988,11.982
	c0,6.62,5.373,11.982,11.988,11.982c6.624,0,11.988-5.362,11.988-11.982C130.845,6.119,125.48,0.749,118.857,0.749"/>
<path fill="none" stroke="#000000" stroke-width="1.4978" stroke-linecap="round" stroke-linejoin="round" stroke-miterlimit="10" d="
	M118.857,0.749c-6.616,0-11.988,5.37-11.988,11.982c0,6.62,5.373,11.982,11.988,11.982c6.624,0,11.988-5.362,11.988-11.982
	C130.845,6.119,125.48,0.749,118.857,0.749"/>
<text transform="matrix(1.0005 0 0 1 113.0513 21.5352)" font-family="'TimesNewRomanPS-ItalicMT'" font-size="23.9647">1</text>
<path fill-rule="evenodd" clip-rule="evenodd" fill="#00CC99" d="M94.881,72.643c-6.616,0-11.988,5.37-11.988,11.982
	c0,6.621,5.372,11.982,11.988,11.982c6.623,0,11.988-5.362,11.988-11.982C106.869,78.013,101.504,72.643,94.881,72.643"/>
<path fill="none" stroke="#000000" stroke-width="1.4978" stroke-linecap="round" stroke-linejoin="round" stroke-miterlimit="10" d="
	M94.881,72.643c-6.616,0-11.988,5.37-11.988,11.982c0,6.621,5.372,11.982,11.988,11.982c6.623,0,11.988-5.362,11.988-11.982
	C106.869,78.013,101.504,72.643,94.881,72.643"/>
<text transform="matrix(1.0005 0 0 1 89.0552 93.4219)" font-family="'TimesNewRomanPS-ItalicMT'" font-size="23.9647">2</text>
<path fill-rule="evenodd" clip-rule="evenodd" fill="#00CC99" d="M69.904,144.537c-6.616,0-11.988,5.371-11.988,11.982
	c0,6.621,5.372,11.982,11.988,11.982c6.624,0,11.988-5.361,11.988-11.982C81.893,149.908,76.528,144.537,69.904,144.537"/>
<path fill="none" stroke="#000000" stroke-width="1.4978" stroke-linecap="round" stroke-linejoin="round" stroke-miterlimit="10" d="
	M69.904,144.537c-6.616,0-11.988,5.371-11.988,11.982c0,6.621,5.372,11.982,11.988,11.982c6.624,0,11.988-5.361,11.988-11.982
	C81.893,149.908,76.528,144.537,69.904,144.537"/>
<text transform="matrix(1.0005 0 0 1 64.0977 165.3325)" font-family="'TimesNewRomanPS-ItalicMT'" font-size="23.9647">3</text>
<path fill-rule="evenodd" clip-rule="evenodd" fill="#00CC99" d="M43.928,216.431c-6.608,0-11.988,5.377-11.988,11.982
	c0,6.621,5.38,11.982,11.988,11.982c6.624,0,11.988-5.361,11.988-11.982C55.916,221.808,50.551,216.431,43.928,216.431"/>
<path fill="none" stroke="#000000" stroke-width="1.4978" stroke-linecap="round" stroke-linejoin="round" stroke-miterlimit="10" d="
	M43.928,216.431c-6.608,0-11.988,5.377-11.988,11.982c0,6.621,5.38,11.982,11.988,11.982c6.624,0,11.988-5.361,11.988-11.982
	C55.916,221.808,50.551,216.431,43.928,216.431"/>
<text transform="matrix(1.0005 0 0 1 38.125 237.2271)" font-family="'TimesNewRomanPS-ItalicMT'" font-size="23.9647">4</text>
<path fill-rule="evenodd" clip-rule="evenodd" fill="#00CC99" d="M172.804,78.634c-6.608,0-11.988,5.377-11.988,11.982
	c0,6.621,5.38,11.982,11.988,11.982c6.623,0,11.988-5.362,11.988-11.982C184.792,84.012,179.427,78.634,172.804,78.634"/>
<path fill="none" stroke="#000000" stroke-width="1.4978" stroke-linecap="round" stroke-linejoin="round" stroke-miterlimit="10" d="
	M172.804,78.634c-6.608,0-11.988,5.377-11.988,11.982c0,6.621,5.38,11.982,11.988,11.982c6.623,0,11.988-5.362,11.988-11.982
	C184.792,84.012,179.427,78.634,172.804,78.634"/>
<text transform="matrix(1.0005 0 0 1 166.999 99.4307)" font-family="'TimesNewRomanPS-ItalicMT'" font-size="23.9647">5</text>
<path fill-rule="evenodd" clip-rule="evenodd" fill="#00CC99" d="M208.768,132.555c-6.608,0-11.988,5.378-11.988,11.982
	c0,6.621,5.38,11.982,11.988,11.982c6.624,0,11.988-5.361,11.988-11.982C220.756,137.933,215.392,132.555,208.768,132.555"/>
<path fill="none" stroke="#000000" stroke-width="1.4978" stroke-linecap="round" stroke-linejoin="round" stroke-miterlimit="10" d="
	M208.768,132.555c-6.608,0-11.988,5.378-11.988,11.982c0,6.621,5.38,11.982,11.988,11.982c6.624,0,11.988-5.361,11.988-11.982
	C220.756,137.933,215.392,132.555,208.768,132.555"/>
<text transform="matrix(1.0005 0 0 1 202.9526 153.354)" font-family="'TimesNewRomanPS-ItalicMT'" font-size="23.9647">6</text>
<path fill-rule="evenodd" clip-rule="evenodd" fill="#00CC99" d="M246.733,183.476c-6.608,0-11.988,5.377-11.988,11.982
	c0,6.619,5.38,11.982,11.988,11.982c6.624,0,11.988-5.363,11.988-11.982C258.721,188.853,253.357,183.476,246.733,183.476"/>
<path fill="none" stroke="#000000" stroke-width="1.4978" stroke-linecap="round" stroke-linejoin="round" stroke-miterlimit="10" d="
	M246.733,183.476c-6.608,0-11.988,5.377-11.988,11.982c0,6.619,5.38,11.982,11.988,11.982c6.624,0,11.988-5.363,11.988-11.982
	C258.721,188.853,253.357,183.476,246.733,183.476"/>
<text transform="matrix(1.0005 0 0 1 240.9253 204.269)" font-family="'TimesNewRomanPS-ItalicMT'" font-size="23.9647">8</text>
<path fill-rule="evenodd" clip-rule="evenodd" fill="#00CC99" d="M169.804,181.484c-6.608,0-11.988,5.377-11.988,11.982
	c0,6.621,5.38,11.982,11.988,11.982c6.623,0,11.988-5.361,11.988-11.982C181.792,186.861,176.427,181.484,169.804,181.484"/>
<path fill="none" stroke="#000000" stroke-width="1.4978" stroke-linecap="round" stroke-linejoin="round" stroke-miterlimit="10" d="
	M169.804,181.484c-6.608,0-11.988,5.377-11.988,11.982c0,6.621,5.38,11.982,11.988,11.982c6.623,0,11.988-5.361,11.988-11.982
	C181.792,186.861,176.427,181.484,169.804,181.484"/>
<text transform="matrix(1.0005 0 0 1 163.999 202.2681)" font-family="'TimesNewRomanPS-ItalicMT'" font-size="23.9647">7</text>
<path stroke="#000000" stroke-width="0.1198" stroke-linejoin="bevel" stroke-miterlimit="10" d="M115.567,24.983L99.338,68.232
	l-1.401-0.524l16.229-43.256L115.567,24.983L115.567,24.983z M101.796,68.09l-4.915,4.553l-0.697-6.658L101.796,68.09L101.796,68.09
	z"/>
<path stroke="#000000" stroke-width="0.1198" stroke-linejoin="bevel" stroke-miterlimit="10" d="M92.591,96.877l-16.229,43.249
	l-1.401-0.523L91.19,96.346L92.591,96.877L92.591,96.877z M78.819,139.984l-4.915,4.552l-0.697-6.657L78.819,139.984L78.819,139.984
	z"/>
<path stroke="#000000" stroke-width="0.1198" stroke-linejoin="bevel" stroke-miterlimit="10" d="M65.614,168.771l-16.229,43.258
	l-1.394-0.525l16.229-43.256L65.614,168.771L65.614,168.771z M51.843,211.878l-4.916,4.553l-0.689-6.65L51.843,211.878
	L51.843,211.878z"/>
<path stroke="#000000" stroke-width="0.1198" stroke-linejoin="bevel" stroke-miterlimit="10" d="M203.374,155l-20.859,26.047
	l-1.169-0.93l20.845-26.061L203.374,155L203.374,155z M184.897,181.675l-6.099,2.801l1.408-6.545L184.897,181.675L184.897,181.675z"
	/>
<path stroke="#000000" stroke-width="0.1198" stroke-linejoin="bevel" stroke-miterlimit="10" d="M217.362,154.056l20.845,26.061
	l-1.169,0.93L216.178,155L217.362,154.056L217.362,154.056z M239.345,177.931l1.394,6.545l-6.084-2.801L239.345,177.931
	L239.345,177.931z"/>
<g>
	<path stroke="#000000" stroke-width="0.1198" stroke-linejoin="bevel" stroke-miterlimit="10" d="M274.96,31.886l11.746,14.731
		l-1.169,0.929l-11.761-14.717L274.96,31.886L274.96,31.886z M287.845,44.431l1.394,6.545l-6.084-2.801L287.845,44.431
		L287.845,44.431z"/>
	<switch allowreorder="yes">
		<text systemLanguage="ca" transform="matrix(1 0 0 1 296.2769 46.8291)" font-family="'Myriad-Roman'" font-size="14">Aresta de l'arbre</text>
		<text transform="matrix(1 0 0 1 296.2769 46.8291)" font-family="'Myriad-Roman'" font-size="18">Tree edge</text>
	</switch>
</g>
<g>
	<path fill="#3333CC" stroke="#3333CC" stroke-width="0.1198" stroke-linejoin="bevel" stroke-miterlimit="10" d="M274.96,59.552
		l11.746,14.731l-1.169,0.929l-11.761-14.717L274.96,59.552L274.96,59.552z M287.845,72.097l1.394,6.545l-6.084-2.801
		L287.845,72.097L287.845,72.097z"/>
	
		<switch allowreorder="yes">
			<text systemLanguage="ca" transform="matrix(1 0 0 1 296.2769 74.4961)" fill="#3333CC" stroke="#3333CC" stroke-width="0.1198" stroke-linejoin="bevel" stroke-miterlimit="10" font-family="'Myriad-Roman'" font-size="14">Cap enrera</text>
			<text transform="matrix(1 0 0 1 296.2769 74.4961)" fill="#3333CC" stroke="#3333CC" stroke-width="0.1198" stroke-linejoin="bevel" stroke-miterlimit="10" font-family="'Myriad-Roman'" font-size="18">Back edge</text>
		</switch>
</g>
<g>
	<path fill="#4B9900" stroke="#00CC99" stroke-width="0.1198" stroke-linejoin="bevel" stroke-miterlimit="10" d="M274.96,87.219
		l11.746,14.731l-1.169,0.929l-11.761-14.717L274.96,87.219L274.96,87.219z M287.845,99.764l1.394,6.545l-6.084-2.801
		L287.845,99.764L287.845,99.764z"/>
	
		<switch allowreorder="yes">
			<text systemLanguage="ca" transform="matrix(1 0 0 1 296.2769 102.1621)" fill="#4B9900" stroke="#00CC99" stroke-width="0.1198" stroke-linejoin="bevel" stroke-miterlimit="10" font-family="'Myriad-Roman'" font-size="14">Cap endavant</text>
			<text transform="matrix(1 0 0 1 296.2769 102.1621)" fill="#4B9900" stroke="#00CC99" stroke-width="0.1198" stroke-linejoin="bevel" stroke-miterlimit="10" font-family="'Myriad-Roman'" font-size="18">Forward edge</text>
		</switch>

</g>
<g>
	<path fill="#FF0000" stroke="#FF0000" stroke-width="0.1198" stroke-linejoin="bevel" stroke-miterlimit="10" d="M274.96,114.886
		l11.746,14.731l-1.169,0.929l-11.761-14.717L274.96,114.886L274.96,114.886z M287.845,127.431l1.394,6.545l-6.084-2.801
		L287.845,127.431L287.845,127.431z"/>
	
		<switch allowreorder="yes">
			<text systemLanguage="ca" transform="matrix(1 0 0 1 296.2769 129.8291)" fill="#FF0000" stroke="#FF0000" stroke-width="0.1198" stroke-linejoin="bevel" stroke-miterlimit="10" font-family="'Myriad-Roman'" font-size="14">Creuada</text>
			<text transform="matrix(1 0 0 1 296.2769 129.8291)" fill="#FF0000" stroke="#FF0000" stroke-width="0.1198" stroke-linejoin="bevel" stroke-miterlimit="10" font-family="'Myriad-Roman'" font-size="18">Cross edge</text>
		</switch>
</g>
</svg>
