<?xml version="1.0" encoding="UTF-8" standalone="no"?>
<!DOCTYPE svg PUBLIC "-//W3C//DTD SVG 1.1//EN"
 "http://www.w3.org/Graphics/SVG/1.1/DTD/svg11.dtd">
<!-- Generated by graphviz version 2.36.0 (20140111.2315)
 -->
<!-- Title: %3 Pages: 1 -->
<svg width="368pt" height="181pt"
 viewBox="0.00 0.00 368.00 181.00" xmlns="http://www.w3.org/2000/svg" xmlns:xlink="http://www.w3.org/1999/xlink">
<g id="graph0" class="graph" transform="scale(1 1) rotate(0) translate(4 177)">
<title>%3</title>
<polygon fill="white" stroke="none" points="-4,4 -4,-177 364,-177 364,4 -4,4"/>
<!-- fildesc -->
<g id="node1" class="node"><title>fildesc</title>
<polygon fill="none" stroke="black" points="0.5,-11.5 0.5,-172.5 101.5,-172.5 101.5,-11.5 0.5,-11.5"/>
<text text-anchor="middle" x="51" y="-157.3" font-family="Times,serif" font-size="14.00">File descriptors</text>
<polyline fill="none" stroke="black" points="0.5,-149.5 101.5,-149.5 "/>
<text text-anchor="middle" x="51" y="-134.3" font-family="Times,serif" font-size="14.00">0</text>
<polyline fill="none" stroke="black" points="0.5,-126.5 101.5,-126.5 "/>
<text text-anchor="middle" x="51" y="-111.3" font-family="Times,serif" font-size="14.00">1</text>
<polyline fill="none" stroke="black" points="0.5,-103.5 101.5,-103.5 "/>
<text text-anchor="middle" x="51" y="-88.3" font-family="Times,serif" font-size="14.00">2</text>
<polyline fill="none" stroke="black" points="0.5,-80.5 101.5,-80.5 "/>
<text text-anchor="middle" x="51" y="-65.3" font-family="Times,serif" font-size="14.00">3</text>
<polyline fill="none" stroke="black" points="0.5,-57.5 101.5,-57.5 "/>
<text text-anchor="middle" x="51" y="-42.3" font-family="Times,serif" font-size="14.00">4</text>
<polyline fill="none" stroke="black" points="0.5,-34.5 101.5,-34.5 "/>
<text text-anchor="middle" x="51" y="-19.3" font-family="Times,serif" font-size="14.00">...</text>
</g>
<!-- filetab -->
<g id="node2" class="node"><title>filetab</title>
<polygon fill="none" stroke="black" points="138,-23 138,-161 210,-161 210,-23 138,-23"/>
<text text-anchor="middle" x="174" y="-145.8" font-family="Times,serif" font-size="14.00">File table</text>
<polyline fill="none" stroke="black" points="138,-138 210,-138 "/>
<text text-anchor="middle" x="174" y="-122.8" font-family="Times,serif" font-size="14.00">read</text>
<polyline fill="none" stroke="black" points="138,-115 210,-115 "/>
<text text-anchor="middle" x="174" y="-99.8" font-family="Times,serif" font-size="14.00">...</text>
<polyline fill="none" stroke="black" points="138,-92 210,-92 "/>
<text text-anchor="middle" x="174" y="-76.8" font-family="Times,serif" font-size="14.00">write</text>
<polyline fill="none" stroke="black" points="138,-69 210,-69 "/>
<text text-anchor="middle" x="174" y="-53.8" font-family="Times,serif" font-size="14.00">read&#45;write</text>
<polyline fill="none" stroke="black" points="138,-46 210,-46 "/>
<text text-anchor="middle" x="174" y="-30.8" font-family="Times,serif" font-size="14.00">...</text>
</g>
<!-- fildesc&#45;&gt;filetab -->
<g id="edge1" class="edge"><title>fildesc:0&#45;&gt;filetab:0</title>
<path fill="none" stroke="black" d="M102,-138C114.678,-138 119.207,-131.683 127.938,-128.623"/>
<polygon fill="black" stroke="black" points="128.685,-132.048 138,-127 127.57,-125.137 128.685,-132.048"/>
</g>
<!-- fildesc&#45;&gt;filetab -->
<g id="edge2" class="edge"><title>fildesc:1&#45;&gt;filetab:1</title>
<path fill="none" stroke="black" d="M102,-115C120.131,-115 117.833,-91.8945 128.303,-83.23"/>
<polygon fill="black" stroke="black" points="129.619,-86.481 138,-80 127.406,-79.8398 129.619,-86.481"/>
</g>
<!-- fildesc&#45;&gt;filetab -->
<g id="edge3" class="edge"><title>fildesc:2&#45;&gt;filetab:0</title>
<path fill="none" stroke="black" d="M102,-92C120.131,-92 117.833,-115.105 128.303,-123.77"/>
<polygon fill="black" stroke="black" points="127.406,-127.16 138,-127 129.619,-120.519 127.406,-127.16"/>
</g>
<!-- fildesc&#45;&gt;filetab -->
<g id="edge4" class="edge"><title>fildesc:3&#45;&gt;filetab:2</title>
<path fill="none" stroke="black" d="M102,-46C114.678,-46 119.207,-52.3171 127.938,-55.3769"/>
<polygon fill="black" stroke="black" points="127.57,-58.8627 138,-57 128.685,-51.952 127.57,-58.8627"/>
</g>
<!-- inotab -->
<g id="node3" class="node"><title>inotab</title>
<polygon fill="none" stroke="black" points="246.5,0.5 246.5,-114.5 359.5,-114.5 359.5,0.5 246.5,0.5"/>
<text text-anchor="middle" x="303" y="-99.3" font-family="Times,serif" font-size="14.00">Inode table</text>
<polyline fill="none" stroke="black" points="246.5,-91.5 359.5,-91.5 "/>
<text text-anchor="middle" x="303" y="-76.3" font-family="Times,serif" font-size="14.00">/home/joe/wikidb</text>
<polyline fill="none" stroke="black" points="246.5,-68.5 359.5,-68.5 "/>
<text text-anchor="middle" x="303" y="-53.3" font-family="Times,serif" font-size="14.00">...</text>
<polyline fill="none" stroke="black" points="246.5,-45.5 359.5,-45.5 "/>
<text text-anchor="middle" x="303" y="-30.3" font-family="Times,serif" font-size="14.00">/etc/passwd</text>
<polyline fill="none" stroke="black" points="246.5,-22.5 359.5,-22.5 "/>
<text text-anchor="middle" x="303" y="-7.3" font-family="Times,serif" font-size="14.00">...</text>
</g>
<!-- filetab&#45;&gt;inotab -->
<g id="edge5" class="edge"><title>filetab:0&#45;&gt;inotab:1</title>
<path fill="none" stroke="black" d="M210,-127C250.167,-127 210.696,-50.6201 235.931,-36.2989"/>
<polygon fill="black" stroke="black" points="237.03,-39.6382 246,-34 235.472,-32.8138 237.03,-39.6382"/>
</g>
<!-- filetab&#45;&gt;inotab -->
<g id="edge6" class="edge"><title>filetab:1&#45;&gt;inotab:0</title>
<path fill="none" stroke="black" d="M210,-80C222,-80 227.25,-80 235.875,-80"/>
<polygon fill="black" stroke="black" points="236,-83.5001 246,-80 236,-76.5001 236,-83.5001"/>
</g>
<!-- filetab&#45;&gt;inotab -->
<g id="edge7" class="edge"><title>filetab:2&#45;&gt;inotab:0</title>
<path fill="none" stroke="black" d="M210,-57C224.833,-57 226.874,-71.0381 236.11,-77.1797"/>
<polygon fill="black" stroke="black" points="235.424,-80.6234 246,-80 237.343,-73.8918 235.424,-80.6234"/>
</g>
</g>
</svg>
